<svg width="23" height="23" viewBox="0 0 23 23" fill="none" xmlns="http://www.w3.org/2000/svg">
<g clip-path="url(#clip0_5296_9848)">
<path d="M11.5 22.999C17.8513 22.999 23 17.8503 23 11.499C23 5.14775 17.8513 -0.000976562 11.5 -0.000976562C5.14873 -0.000976562 0 5.14775 0 11.499C0 17.8503 5.14873 22.999 11.5 22.999Z" fill="#007AB9"/>
<path d="M18.3711 12.4251V17.1663H15.6222V12.7429C15.6222 11.6322 15.2254 10.8737 14.2301 10.8737C13.4706 10.8737 13.0194 11.3843 12.8201 11.8788C12.7478 12.0555 12.7291 12.3009 12.7291 12.5487V17.1661H9.98007C9.98007 17.1661 10.017 9.67425 9.98007 8.89874H12.7293V10.0703C12.7238 10.0795 12.716 10.0886 12.7111 10.0974H12.7293V10.0703C13.0946 9.5082 13.7461 8.70461 15.2067 8.70461C17.0152 8.70461 18.3711 9.88622 18.3711 12.4251ZM7.10436 4.91357C6.16403 4.91357 5.54883 5.53082 5.54883 6.3418C5.54883 7.13555 6.14619 7.77064 7.06828 7.77064H7.08611C8.04489 7.77064 8.64102 7.13555 8.64102 6.3418C8.62278 5.53082 8.04489 4.91357 7.10436 4.91357ZM5.71221 17.1663H8.46022V8.89874H5.71221V17.1663Z" fill="#F1F2F2"/>
</g>
<defs>
<clipPath id="clip0_5296_9848">
<rect width="23" height="23" fill="white"/>
</clipPath>
</defs>
</svg>
